<?xml version="1.0" encoding="UTF-8"?>
<svg width="21px" height="21px" viewBox="0 0 21 21" version="1.1" xmlns="http://www.w3.org/2000/svg" xmlns:xlink="http://www.w3.org/1999/xlink">
    <!-- Generator: Sketch 64 (93537) - https://sketch.com -->
    <title>facebook</title>
    <desc>Created with Sketch.</desc>
    <g id="first-page" stroke="none" stroke-width="1" fill="none" fill-rule="evenodd">
        <path d="M8.68359375,21 L8.68359375,13.8604889 L5.73046875,13.8604889 L5.73046875,10.5 L8.68359375,10.5 L8.68359375,7.93876648 C8.68359375,5.02546692 10.4179688,3.41624451 13.0743713,3.41624451 C14.3465424,3.41624451 15.6768951,3.64311218 15.6768951,3.64311218 L15.6768951,6.50248718 L14.2110901,6.50248718 C12.7668915,6.50248718 12.3164062,7.39874268 12.3164062,8.31797791 L12.3164062,10.5 L15.5404816,10.5 L15.0248566,13.8604889 L12.3164062,13.8604889 L12.3164062,21 L18.75,21 C19.9920044,21 21,19.9920044 21,18.75 L21,2.25 C21,1.00799561 19.9920044,0 18.75,0 L2.25,0 C1.00799561,0 0,1.00799561 0,2.25 L0,18.75 C0,19.9920044 1.00799561,21 2.25,21 L8.68359375,21 Z" id="facebook" fill="#FFFFFF" fill-rule="nonzero"></path>
    </g>
</svg>