<?xml version="1.0" encoding="UTF-8"?>
<svg width="21px" height="21px" viewBox="0 0 21 21" version="1.1" xmlns="http://www.w3.org/2000/svg" xmlns:xlink="http://www.w3.org/1999/xlink">
    <!-- Generator: Sketch 64 (93537) - https://sketch.com -->
    <title>Instagramm</title>
    <desc>Created with Sketch.</desc>
    <g id="first-page" stroke="none" stroke-width="1" fill="none" fill-rule="evenodd">
        <path d="M14.8344676,20.9262103 C16.5167346,20.8465404 18.0068511,20.462285 19.2345738,19.2298947 C20.4622507,18.002172 20.8465061,16.5120556 20.9308436,14.8297886 C21.0292756,13.0959947 21.0292756,7.9039939 20.9308436,6.17019998 C20.8512194,4.48793298 20.4669641,2.99781655 19.2345738,1.77009386 C18.0068511,0.542416934 16.5167346,0.158161561 14.8344676,0.0738239824 C13.1006737,-0.0246079941 7.90395958,-0.0246079941 6.17016566,0.0738239824 C4.49261205,0.153448175 3.00249561,0.537703548 1.7701053,1.76542623 C0.537714988,2.99314892 0.158127241,4.48326535 0.0737896616,6.16553236 C-0.0245965539,7.89932628 -0.0245965539,13.0959947 0.0737896616,14.8297886 C0.153459616,16.5120556 0.537714988,18.002172 1.7701053,19.2298947 C3.00249561,20.4576174 4.48794442,20.841827 6.17016566,20.9262103 C7.90395958,21.0245966 13.1006737,21.0245966 14.8344676,20.9262103 Z M10.5046505,19.1080331 C8.97705575,19.1080331 5.69223746,19.2298947 4.31455588,18.6862994 C3.39613199,18.3208061 2.68852918,17.613249 2.31836821,16.6901117 C1.7701053,15.3077625 1.89663455,12.0276119 1.89663455,10.5000172 C1.89663455,8.97237668 1.77477292,5.68755839 2.31836821,4.30987681 C2.68386156,3.39145293 3.39141861,2.68385012 4.31455588,2.31368914 C5.69690508,1.76542623 8.97705575,1.89195548 10.5046505,1.89195548 C12.0322909,1.89195548 15.3171092,1.77009386 16.6947908,2.31368914 C17.6132147,2.67918249 18.3208175,3.38673954 18.6909785,4.30987681 C19.2392414,5.69222602 19.1127121,8.97237668 19.1127121,10.5000172 C19.1127121,12.0276119 19.2392414,15.3124302 18.6909785,16.6901117 C18.3254851,17.6085356 17.6179281,18.3161384 16.6947908,18.6862994 C15.3124416,19.2345623 12.0322909,19.1080331 10.5046505,19.1080331 Z M16.1090496,6.15143796 C16.802558,6.15143796 17.3648696,5.5938398 17.3648696,4.895618 C17.3648696,4.20210958 16.802558,3.63979804 16.1090496,3.63979804 C15.4155412,3.63979804 14.8532297,4.20210958 14.8532297,4.895618 C14.8532297,5.58912642 15.4108278,6.15143796 16.1090496,6.15143796 Z M10.5046505,15.8841227 C13.4849291,15.8841227 15.8888018,13.48025 15.8888018,10.5000172 C15.8888018,7.51973853 13.4849291,5.11586584 10.5046505,5.11586584 C7.5244176,5.11586584 5.1205449,7.51973853 5.1205449,10.5000172 C5.1205449,13.48025 7.5244176,15.8841227 10.5046505,15.8841227 Z M10.5046505,14.0003699 C8.57875174,14.0003699 7.00429772,12.4305835 7.00429772,10.5000172 C7.00429772,8.56940505 8.57408411,6.99961866 10.5046505,6.99961866 C12.4352626,6.99961866 14.005049,8.56940505 14.005049,10.5000172 C14.005049,12.4305835 12.430595,14.0003699 10.5046505,14.0003699 Z" id="Instagramm" fill="#FFFFFF" fill-rule="nonzero"></path>
    </g>
</svg>