<svg xmlns="http://www.w3.org/2000/svg" viewBox="0 0 36.08 45"><defs><style>.cls-1{fill:#fff;fill-rule:evenodd;}</style></defs><title>New_logo</title><g id="Слой_2" data-name="Слой 2"><g id="Слой_1-2" data-name="Слой 1"><g id="Layer_2" data-name="Layer 2"><path class="cls-1" d="M20.6,17.6h-3A3.08,3.08,0,0,0,15.1,19,9.75,9.75,0,0,0,10,17.6a10,10,0,0,0,0,20,9.75,9.75,0,0,0,5.1-1.4,2.85,2.85,0,0,0,2.5,1.4,3,3,0,0,0,3-3v-17ZM10,31.7a4.1,4.1,0,1,1,4.1-4.1A4.06,4.06,0,0,1,10,31.7Z"/><path class="cls-1" d="M28.9,20.5V38a7,7,0,0,1-2,5,9.12,9.12,0,0,1-2.3,1.7,3.08,3.08,0,0,1-1.3.3,2.81,2.81,0,0,1-2.6-1.7,2.88,2.88,0,0,1,1.4-3.9c.2-.1.3-.2.5-.3A1.6,1.6,0,0,0,23,38V20.5a3,3,0,0,1,3-3h3l-.1,3Z"/><path class="cls-1" d="M36,0A13.61,13.61,0,0,0,25.9,5.6c-3.8,5-2.7,9.2-2.7,9.2s5.1.9,9.6-4.5A13.89,13.89,0,0,0,36,0Z"/></g></g></g></svg>