<?xml version="1.0" encoding="UTF-8"?>
<svg width="26px" height="21px" viewBox="0 0 26 21" version="1.1" xmlns="http://www.w3.org/2000/svg" xmlns:xlink="http://www.w3.org/1999/xlink">
    <!-- Generator: Sketch 64 (93537) - https://sketch.com -->
    <title>twitter</title>
    <desc>Created with Sketch.</desc>
    <g id="first-page" stroke="none" stroke-width="1" fill="none" fill-rule="evenodd">
        <path d="M8.13749568,21 C17.8828722,21 23.214874,12.9280959 23.214874,5.92267101 C23.214874,5.69300192 23.214874,5.46323421 23.1984514,5.23356512 C24.2320363,4.47886768 25.134438,3.54371949 25.8561917,2.4937614 C24.9046703,2.90388124 23.8710855,3.19924052 22.8046555,3.3140504 C23.9038319,2.65783893 24.7405435,1.62425408 25.1343394,0.393746609 C24.1170785,1.00078907 22.9686837,1.44375401 21.7710707,1.67342309 C20.8030281,0.63983824 19.4249642,0 17.8991468,0 C14.9624698,0 12.5999408,2.3789022 12.5999408,5.299206 C12.5999408,5.70937515 12.6491591,6.11949499 12.7311733,6.5132416 C8.33436899,6.2835232 4.41322681,4.18355773 1.80465552,0.967943976 C1.34521872,1.75543719 1.08280318,2.65778961 1.08280318,3.64215614 C1.08280318,5.47965675 2.01790206,7.10386152 3.44523352,8.05543226 C2.57577551,8.0226858 1.75538788,7.77659417 1.04995808,7.38284756 L1.04995808,7.44843912 C1.04995808,10.0242146 2.87108547,12.1569759 5.299206,12.6492085 C4.85629038,12.7640183 4.38048035,12.8296592 3.90471963,12.8296592 C3.56014203,12.8296592 3.2320363,12.7968634 2.90388124,12.7476451 C3.57656458,14.8476599 5.5289244,16.373428 7.85860828,16.4226957 C6.03748089,17.8500271 3.75696602,18.6867387 1.27967648,18.6867387 C0.836711545,18.6867387 0.426591705,18.6703161 0,18.6211471 C2.34610643,20.1304434 5.13512847,21 8.13749568,21 Z" id="twitter" fill="#FFFFFF" fill-rule="nonzero"></path>
    </g>
</svg>