<?xml version="1.0" encoding="UTF-8"?>
<svg width="36px" height="21px" viewBox="0 0 36 21" version="1.1" xmlns="http://www.w3.org/2000/svg" xmlns:xlink="http://www.w3.org/1999/xlink">
    <!-- Generator: Sketch 64 (93537) - https://sketch.com -->
    <title>VK</title>
    <desc>Created with Sketch.</desc>
    <g id="first-page" stroke="none" stroke-width="1" fill="none" fill-rule="evenodd">
        <path d="M33.9215881,21 C35.0240753,21 35.5818878,20.4487244 35.2603638,19.359375 C34.525351,17.0690369 29.5575256,12.3571747 29.334375,12.0421875 C28.7634888,11.3071747 28.9275513,10.9790497 29.334375,10.3227997 C29.340976,10.3162628 34.059375,3.675 34.5450256,1.42407532 C34.787851,0.603762817 34.5450256,0 33.3769135,0 L29.5115753,0 C28.5272003,0 28.0744263,0.518463135 27.831601,1.09595032 C27.831601,1.09595032 25.862851,5.89311218 23.0803253,9.00376282 C22.18125,9.90283813 21.7678253,10.1915497 21.2756378,10.1915497 C21.0328125,10.1915497 20.6588013,9.90283813 20.6588013,9.08252563 L20.6588013,1.42407532 C20.6588013,0.439700317 20.3831635,0 19.5693878,0 L13.4925385,0 C12.8756378,0 12.5081635,0.459375 12.5081635,0.8859375 C12.5081635,1.81782532 13.8994263,2.034375 14.04375,4.659375 L14.04375,10.3556122 C14.04375,11.6024872 13.8206635,11.8321747 13.328476,11.8321747 C12.015976,11.8321747 8.8265625,7.01533813 6.93657532,1.50283813 C6.55596313,0.433099365 6.18188782,0 5.19097595,0 L1.32563782,0 C0.223150635,0 0,0.518463135 0,1.09595032 C0,2.11967468 1.3125,7.20561218 6.10972595,13.9256378 C9.30567627,18.5127869 13.8075256,21 17.9025513,21 C20.3634888,21 20.6653381,20.4487244 20.6653381,19.4971619 C20.6653381,15.1134247 20.4421875,14.7 21.6759888,14.7 C22.246875,14.7 23.23125,14.9887756 25.528125,17.2002869 C28.153125,19.8252869 28.5862885,21 30.05625,21 L33.9215881,21 Z" id="VK" fill="#FFFFFF" fill-rule="nonzero"></path>
    </g>
</svg>